<svg xmlns="http://www.w3.org/2000/svg" xmlns:xlink="http://www.w3.org/1999/xlink"
  style="margin:auto;background:#FFFFFF;display:block;z-index:1;position:relative"
  width="1084" height="322" preserveAspectRatio="xMidYMid" viewBox="0 0 1084 322">
  <defs>
    <pattern id="spider-pattern" x="0" y="0" width="345.6" height="345.6"
      patternUnits="userSpaceOnUse">
      <g transform="scale(1.35)">
        <g>
          <!-- Red diagonal lines -->
          <line x1="237.6" x2="201.4" y1="119.1" y2="155.3" stroke-width="15" stroke="#FF1744" stroke-linecap="round"></line>
          <line x1="237.6" x2="201.4" y1="-392.9" y2="-356.7" stroke-width="15" stroke="#FF1744" stroke-linecap="round"></line>
          <line x1="493.6" x2="457.4" y1="-392.9" y2="-356.7" stroke-width="15" stroke="#FF1744" stroke-linecap="round"></line>
          <line x1="749.6" x2="713.4" y1="-392.9" y2="-356.7" stroke-width="15" stroke="#FF1744" stroke-linecap="round"></line>
          <line x1="237.6" x2="201.4" y1="-136.9" y2="-100.7" stroke-width="15" stroke="#FF1744" stroke-linecap="round"></line>
          <line x1="493.6" x2="457.4" y1="-136.9" y2="-100.7" stroke-width="15" stroke="#FF1744" stroke-linecap="round"></line>
          <line x1="749.6" x2="713.4" y1="-136.9" y2="-100.7" stroke-width="15" stroke="#FF1744" stroke-linecap="round"></line>
          <line x1="493.6" x2="457.4" y1="119.1" y2="155.3" stroke-width="15" stroke="#FF1744" stroke-linecap="round"></line>
          <line x1="749.6" x2="713.4" y1="119.1" y2="155.3" stroke-width="15" stroke="#FF1744" stroke-linecap="round"></line>
          
          <!-- Blue diagonal lines -->
          <line x1="244.4" x2="179.3" y1="196.2" y2="261.4" stroke-width="15" stroke="#2962FF" stroke-linecap="round"></line>
          <line x1="244.4" x2="179.3" y1="-315.8" y2="-250.6" stroke-width="15" stroke="#2962FF" stroke-linecap="round"></line>
          <line x1="500.4" x2="435.3" y1="-315.8" y2="-250.6" stroke-width="15" stroke="#2962FF" stroke-linecap="round"></line>
          <line x1="756.4" x2="691.3" y1="-315.8" y2="-250.6" stroke-width="15" stroke="#2962FF" stroke-linecap="round"></line>
          <line x1="244.4" x2="179.3" y1="-59.8" y2="5.4" stroke-width="15" stroke="#2962FF" stroke-linecap="round"></line>
          <line x1="500.4" x2="435.3" y1="-59.8" y2="5.4" stroke-width="15" stroke="#2962FF" stroke-linecap="round"></line>
          <line x1="756.4" x2="691.3" y1="-59.8" y2="5.4" stroke-width="15" stroke="#2962FF" stroke-linecap="round"></line>
          <line x1="500.4" x2="435.3" y1="196.2" y2="261.4" stroke-width="15" stroke="#2962FF" stroke-linecap="round"></line>
          <line x1="756.4" x2="691.3" y1="196.2" y2="261.4" stroke-width="15" stroke="#2962FF" stroke-linecap="round"></line>
          
          <!-- White accent lines -->
          <line x1="219.7" x2="209.2" y1="92.9" y2="103.3" stroke-width="12" stroke="#FFFFFF" stroke-linecap="round" opacity="0.8"></line>
          <line x1="219.7" x2="209.2" y1="-419.1" y2="-408.7" stroke-width="12" stroke="#FFFFFF" stroke-linecap="round" opacity="0.8"></line>
          <line x1="475.7" x2="465.2" y1="-419.1" y2="-408.7" stroke-width="12" stroke="#FFFFFF" stroke-linecap="round" opacity="0.8"></line>
          <line x1="731.7" x2="721.2" y1="-419.1" y2="-408.7" stroke-width="12" stroke="#FFFFFF" stroke-linecap="round" opacity="0.8"></line>
          <line x1="219.7" x2="209.2" y1="-163.1" y2="-152.7" stroke-width="12" stroke="#FFFFFF" stroke-linecap="round" opacity="0.8"></line>
          <line x1="475.7" x2="465.2" y1="-163.1" y2="-152.7" stroke-width="12" stroke="#FFFFFF" stroke-linecap="round" opacity="0.8"></line>
          <line x1="731.7" x2="721.2" y1="-163.1" y2="-152.7" stroke-width="12" stroke="#FFFFFF" stroke-linecap="round" opacity="0.8"></line>
          <line x1="475.7" x2="465.2" y1="92.9" y2="103.3" stroke-width="12" stroke="#FFFFFF" stroke-linecap="round" opacity="0.8"></line>
          <line x1="731.7" x2="721.2" y1="92.9" y2="103.3" stroke-width="12" stroke="#FFFFFF" stroke-linecap="round" opacity="0.8"></line>
          
          <!-- Red web pattern -->
          <line x1="112.0" x2="71.2" y1="56.6" y2="97.5" stroke-width="15" stroke="#FF1744" stroke-linecap="round"></line>
          <line x1="112.0" x2="71.2" y1="-455.4" y2="-414.5" stroke-width="15" stroke="#FF1744" stroke-linecap="round"></line>
          <line x1="368.0" x2="327.2" y1="-455.4" y2="-414.5" stroke-width="15" stroke="#FF1744" stroke-linecap="round"></line>
          <line x1="624.0" x2="583.2" y1="-455.4" y2="-414.5" stroke-width="15" stroke="#FF1744" stroke-linecap="round"></line>
          <line x1="112.0" x2="71.2" y1="-199.4" y2="-158.5" stroke-width="15" stroke="#FF1744" stroke-linecap="round"></line>
          <line x1="368.0" x2="327.2" y1="-199.4" y2="-158.5" stroke-width="15" stroke="#FF1744" stroke-linecap="round"></line>
          <line x1="624.0" x2="583.2" y1="-199.4" y2="-158.5" stroke-width="15" stroke="#FF1744" stroke-linecap="round"></line>
          <line x1="368.0" x2="327.2" y1="56.6" y2="97.5" stroke-width="15" stroke="#FF1744" stroke-linecap="round"></line>
          <line x1="624.0" x2="583.2" y1="56.6" y2="97.5" stroke-width="15" stroke="#FF1744" stroke-linecap="round"></line>
          
          <!-- Blue web pattern -->
          <line x1="60.9" x2="49.4" y1="125.7" y2="137.2" stroke-width="15" stroke="#2962FF" stroke-linecap="round"></line>
          <line x1="60.9" x2="49.4" y1="-386.3" y2="-374.8" stroke-width="15" stroke="#2962FF" stroke-linecap="round"></line>
          <line x1="316.9" x2="305.4" y1="-386.3" y2="-374.8" stroke-width="15" stroke="#2962FF" stroke-linecap="round"></line>
          <line x1="572.9" x2="561.4" y1="-386.3" y2="-374.8" stroke-width="15" stroke="#2962FF" stroke-linecap="round"></line>
          <line x1="60.9" x2="49.4" y1="-130.3" y2="-118.8" stroke-width="15" stroke="#2962FF" stroke-linecap="round"></line>
          <line x1="316.9" x2="305.4" y1="-130.3" y2="-118.8" stroke-width="15" stroke="#2962FF" stroke-linecap="round"></line>
          <line x1="572.9" x2="561.4" y1="-130.3" y2="-118.8" stroke-width="15" stroke="#2962FF" stroke-linecap="round"></line>
          <line x1="316.9" x2="305.4" y1="125.7" y2="137.2" stroke-width="15" stroke="#2962FF" stroke-linecap="round"></line>
          <line x1="572.9" x2="561.4" y1="125.7" y2="137.2" stroke-width="15" stroke="#2962FF" stroke-linecap="round"></line>
          
          <!-- Pink/Magenta accent lines -->
          <line x1="145.3" x2="99.8" y1="82.4" y2="127.9" stroke-width="12" stroke="#FF4081" stroke-linecap="round" opacity="0.6"></line>
          <line x1="145.3" x2="99.8" y1="-429.6" y2="-384.1" stroke-width="12" stroke="#FF4081" stroke-linecap="round" opacity="0.6"></line>
          <line x1="401.3" x2="355.8" y1="-429.6" y2="-384.1" stroke-width="12" stroke="#FF4081" stroke-linecap="round" opacity="0.6"></line>
          <line x1="657.3" x2="611.8" y1="-429.6" y2="-384.1" stroke-width="12" stroke="#FF4081" stroke-linecap="round" opacity="0.6"></line>
          <line x1="145.3" x2="99.8" y1="-173.6" y2="-128.1" stroke-width="12" stroke="#FF4081" stroke-linecap="round" opacity="0.6"></line>
          <line x1="401.3" x2="355.8" y1="-173.6" y2="-128.1" stroke-width="12" stroke="#FF4081" stroke-linecap="round" opacity="0.6"></line>
          <line x1="657.3" x2="611.8" y1="-173.6" y2="-128.1" stroke-width="12" stroke="#FF4081" stroke-linecap="round" opacity="0.6"></line>
          <line x1="401.3" x2="355.8" y1="82.4" y2="127.9" stroke-width="12" stroke="#FF4081" stroke-linecap="round" opacity="0.6"></line>
          <line x1="657.3" x2="611.8" y1="82.4" y2="127.9" stroke-width="12" stroke="#FF4081" stroke-linecap="round" opacity="0.6"></line>
          
          <!-- Additional red spider web lines -->
          <line x1="84.7" x2="32.7" y1="248.3" y2="300.3" stroke-width="15" stroke="#FF1744" stroke-linecap="round"></line>
          <line x1="84.7" x2="32.7" y1="-263.7" y2="-211.7" stroke-width="15" stroke="#FF1744" stroke-linecap="round"></line>
          <line x1="340.7" x2="288.7" y1="-263.7" y2="-211.7" stroke-width="15" stroke="#FF1744" stroke-linecap="round"></line>
          <line x1="596.7" x2="544.7" y1="-263.7" y2="-211.7" stroke-width="15" stroke="#FF1744" stroke-linecap="round"></line>
          <line x1="84.7" x2="32.7" y1="-7.7" y2="44.3" stroke-width="15" stroke="#FF1744" stroke-linecap="round"></line>
          <line x1="340.7" x2="288.7" y1="-7.7" y2="44.3" stroke-width="15" stroke="#FF1744" stroke-linecap="round"></line>
          <line x1="596.7" x2="544.7" y1="-7.7" y2="44.3" stroke-width="15" stroke="#FF1744" stroke-linecap="round"></line>
          
          <!-- Blue crossing lines -->
          <line x1="225.4" x2="185.7" y1="109.7" y2="149.4" stroke-width="15" stroke="#2962FF" stroke-linecap="round"></line>
          <line x1="225.4" x2="185.7" y1="-402.3" y2="-362.6" stroke-width="15" stroke="#2962FF" stroke-linecap="round"></line>
          <line x1="481.4" x2="441.7" y1="-402.3" y2="-362.6" stroke-width="15" stroke="#2962FF" stroke-linecap="round"></line>
          <line x1="737.4" x2="697.7" y1="-402.3" y2="-362.6" stroke-width="15" stroke="#2962FF" stroke-linecap="round"></line>
          <line x1="225.4" x2="185.7" y1="-146.3" y2="-106.6" stroke-width="15" stroke="#2962FF" stroke-linecap="round"></line>
          <line x1="481.4" x2="441.7" y1="-146.3" y2="-106.6" stroke-width="15" stroke="#2962FF" stroke-linecap="round"></line>
          <line x1="737.4" x2="697.7" y1="-146.3" y2="-106.6" stroke-width="15" stroke="#2962FF" stroke-linecap="round"></line>
          <line x1="481.4" x2="441.7" y1="109.7" y2="149.4" stroke-width="15" stroke="#2962FF" stroke-linecap="round"></line>
          <line x1="737.4" x2="697.7" y1="109.7" y2="149.4" stroke-width="15" stroke="#2962FF" stroke-linecap="round"></line>
          
          <!-- White web highlights -->
          <line x1="172.8" x2="103.5" y1="164.5" y2="233.8" stroke-width="10" stroke="#FFFFFF" stroke-linecap="round" opacity="0.7"></line>
          <line x1="172.8" x2="103.5" y1="-347.5" y2="-278.2" stroke-width="10" stroke="#FFFFFF" stroke-linecap="round" opacity="0.7"></line>
          <line x1="428.8" x2="359.5" y1="-347.5" y2="-278.2" stroke-width="10" stroke="#FFFFFF" stroke-linecap="round" opacity="0.7"></line>
          <line x1="684.8" x2="615.5" y1="-347.5" y2="-278.2" stroke-width="10" stroke="#FFFFFF" stroke-linecap="round" opacity="0.7"></line>
          <line x1="172.8" x2="103.5" y1="-91.5" y2="-22.2" stroke-width="10" stroke="#FFFFFF" stroke-linecap="round" opacity="0.7"></line>
          <line x1="428.8" x2="359.5" y1="-91.5" y2="-22.2" stroke-width="10" stroke="#FFFFFF" stroke-linecap="round" opacity="0.7"></line>
          <line x1="684.8" x2="615.5" y1="-91.5" y2="-22.2" stroke-width="10" stroke="#FFFFFF" stroke-linecap="round" opacity="0.7"></line>
          <line x1="428.8" x2="359.5" y1="164.5" y2="233.8" stroke-width="10" stroke="#FFFFFF" stroke-linecap="round" opacity="0.7"></line>
          <line x1="684.8" x2="615.5" y1="164.5" y2="233.8" stroke-width="10" stroke="#FFFFFF" stroke-linecap="round" opacity="0.7"></line>
          
          <!-- Red accent crosses -->
          <line x1="254.9" x2="240.1" y1="-1.2" y2="13.5" stroke-width="15" stroke="#FF1744" stroke-linecap="round"></line>
          <line x1="254.9" x2="240.1" y1="-513.2" y2="-498.5" stroke-width="15" stroke="#FF1744" stroke-linecap="round"></line>
          <line x1="510.9" x2="496.1" y1="-513.2" y2="-498.5" stroke-width="15" stroke="#FF1744" stroke-linecap="round"></line>
          <line x1="766.9" x2="752.1" y1="-513.2" y2="-498.5" stroke-width="15" stroke="#FF1744" stroke-linecap="round"></line>
          <line x1="254.9" x2="240.1" y1="-257.2" y2="-242.5" stroke-width="15" stroke="#FF1744" stroke-linecap="round"></line>
          <line x1="510.9" x2="496.1" y1="-257.2" y2="-242.5" stroke-width="15" stroke="#FF1744" stroke-linecap="round"></line>
          <line x1="766.9" x2="752.1" y1="-257.2" y2="-242.5" stroke-width="15" stroke="#FF1744" stroke-linecap="round"></line>
          <line x1="510.9" x2="496.1" y1="-1.2" y2="13.5" stroke-width="15" stroke="#FF1744" stroke-linecap="round"></line>
          <line x1="766.9" x2="752.1" y1="-1.2" y2="13.5" stroke-width="15" stroke="#FF1744" stroke-linecap="round"></line>
          <line x1="254.9" x2="240.1" y1="254.8" y2="269.5" stroke-width="15" stroke="#FF1744" stroke-linecap="round"></line>
          
          <!-- Animation -->
          <animateTransform attributeName="transform" type="translate" values="0 0;-256 256"
            keyTimes="0;1" repeatCount="indefinite" dur="12s"></animateTransform>
        </g>
      </g>
    </pattern>
  </defs>
  <rect x="0" y="0" width="1084" height="322" fill="url(#spider-pattern)"></rect>
</svg>
