<svg xmlns="http://www.w3.org/2000/svg" 
  width="1200" height="400" 
  viewBox="0 0 1200 400" 
  preserveAspectRatio="xMidYMid meet">
  
  <!-- Background -->
  <rect width="1200" height="400" fill="transparent"/>
  
  <!-- Complete geometric pattern with SHORT lines -->
  <g opacity="0.6">
    
    <!-- Blue short diagonal lines - Row 1 -->
    <line x1="100" y1="50" x2="130" y2="80" stroke="#2563eb" stroke-width="12" stroke-linecap="round"/>
    <line x1="180" y1="50" x2="210" y2="80" stroke="#2563eb" stroke-width="12" stroke-linecap="round"/>
    <line x1="260" y1="50" x2="290" y2="80" stroke="#2563eb" stroke-width="12" stroke-linecap="round"/>
    <line x1="340" y1="50" x2="370" y2="80" stroke="#2563eb" stroke-width="12" stroke-linecap="round"/>
    <line x1="420" y1="50" x2="450" y2="80" stroke="#2563eb" stroke-width="12" stroke-linecap="round"/>
    <line x1="500" y1="50" x2="530" y2="80" stroke="#2563eb" stroke-width="12" stroke-linecap="round"/>
    <line x1="580" y1="50" x2="610" y2="80" stroke="#2563eb" stroke-width="12" stroke-linecap="round"/>
    <line x1="660" y1="50" x2="690" y2="80" stroke="#2563eb" stroke-width="12" stroke-linecap="round"/>
    <line x1="740" y1="50" x2="770" y2="80" stroke="#2563eb" stroke-width="12" stroke-linecap="round"/>
    <line x1="820" y1="50" x2="850" y2="80" stroke="#2563eb" stroke-width="12" stroke-linecap="round"/>
    <line x1="900" y1="50" x2="930" y2="80" stroke="#2563eb" stroke-width="12" stroke-linecap="round"/>
    <line x1="980" y1="50" x2="1010" y2="80" stroke="#2563eb" stroke-width="12" stroke-linecap="round"/>
    <line x1="1060" y1="50" x2="1090" y2="80" stroke="#2563eb" stroke-width="12" stroke-linecap="round"/>
    
    <!-- Blue short diagonal lines - Row 2 -->
    <line x1="50" y1="120" x2="80" y2="150" stroke="#2563eb" stroke-width="12" stroke-linecap="round"/>
    <line x1="130" y1="120" x2="160" y2="150" stroke="#2563eb" stroke-width="12" stroke-linecap="round"/>
    <line x1="210" y1="120" x2="240" y2="150" stroke="#2563eb" stroke-width="12" stroke-linecap="round"/>
    <line x1="290" y1="120" x2="320" y2="150" stroke="#2563eb" stroke-width="12" stroke-linecap="round"/>
    <line x1="370" y1="120" x2="400" y2="150" stroke="#2563eb" stroke-width="12" stroke-linecap="round"/>
    <line x1="450" y1="120" x2="480" y2="150" stroke="#2563eb" stroke-width="12" stroke-linecap="round"/>
    <line x1="530" y1="120" x2="560" y2="150" stroke="#2563eb" stroke-width="12" stroke-linecap="round"/>
    <line x1="610" y1="120" x2="640" y2="150" stroke="#2563eb" stroke-width="12" stroke-linecap="round"/>
    <line x1="690" y1="120" x2="720" y2="150" stroke="#2563eb" stroke-width="12" stroke-linecap="round"/>
    <line x1="770" y1="120" x2="800" y2="150" stroke="#2563eb" stroke-width="12" stroke-linecap="round"/>
    <line x1="850" y1="120" x2="880" y2="150" stroke="#2563eb" stroke-width="12" stroke-linecap="round"/>
    <line x1="930" y1="120" x2="960" y2="150" stroke="#2563eb" stroke-width="12" stroke-linecap="round"/>
    <line x1="1010" y1="120" x2="1040" y2="150" stroke="#2563eb" stroke-width="12" stroke-linecap="round"/>
    <line x1="1090" y1="120" x2="1120" y2="150" stroke="#2563eb" stroke-width="12" stroke-linecap="round"/>
    
    <!-- Blue short diagonal lines - Row 3 -->
    <line x1="100" y1="190" x2="130" y2="220" stroke="#2563eb" stroke-width="12" stroke-linecap="round"/>
    <line x1="180" y1="190" x2="210" y2="220" stroke="#2563eb" stroke-width="12" stroke-linecap="round"/>
    <line x1="260" y1="190" x2="290" y2="220" stroke="#2563eb" stroke-width="12" stroke-linecap="round"/>
    <line x1="340" y1="190" x2="370" y2="220" stroke="#2563eb" stroke-width="12" stroke-linecap="round"/>
    <line x1="420" y1="190" x2="450" y2="220" stroke="#2563eb" stroke-width="12" stroke-linecap="round"/>
    <line x1="500" y1="190" x2="530" y2="220" stroke="#2563eb" stroke-width="12" stroke-linecap="round"/>
    <line x1="580" y1="190" x2="610" y2="220" stroke="#2563eb" stroke-width="12" stroke-linecap="round"/>
    <line x1="660" y1="190" x2="690" y2="220" stroke="#2563eb" stroke-width="12" stroke-linecap="round"/>
    <line x1="740" y1="190" x2="770" y2="220" stroke="#2563eb" stroke-width="12" stroke-linecap="round"/>
    <line x1="820" y1="190" x2="850" y2="220" stroke="#2563eb" stroke-width="12" stroke-linecap="round"/>
    <line x1="900" y1="190" x2="930" y2="220" stroke="#2563eb" stroke-width="12" stroke-linecap="round"/>
    <line x1="980" y1="190" x2="1010" y2="220" stroke="#2563eb" stroke-width="12" stroke-linecap="round"/>
    <line x1="1060" y1="190" x2="1090" y2="220" stroke="#2563eb" stroke-width="12" stroke-linecap="round"/>
    
    <!-- Blue short diagonal lines - Row 4 -->
    <line x1="50" y1="260" x2="80" y2="290" stroke="#2563eb" stroke-width="12" stroke-linecap="round"/>
    <line x1="130" y1="260" x2="160" y2="290" stroke="#2563eb" stroke-width="12" stroke-linecap="round"/>
    <line x1="210" y1="260" x2="240" y2="290" stroke="#2563eb" stroke-width="12" stroke-linecap="round"/>
    <line x1="290" y1="260" x2="320" y2="290" stroke="#2563eb" stroke-width="12" stroke-linecap="round"/>
    <line x1="370" y1="260" x2="400" y2="290" stroke="#2563eb" stroke-width="12" stroke-linecap="round"/>
    <line x1="450" y1="260" x2="480" y2="290" stroke="#2563eb" stroke-width="12" stroke-linecap="round"/>
    <line x1="530" y1="260" x2="560" y2="290" stroke="#2563eb" stroke-width="12" stroke-linecap="round"/>
    <line x1="610" y1="260" x2="640" y2="290" stroke="#2563eb" stroke-width="12" stroke-linecap="round"/>
    <line x1="690" y1="260" x2="720" y2="290" stroke="#2563eb" stroke-width="12" stroke-linecap="round"/>
    <line x1="770" y1="260" x2="800" y2="290" stroke="#2563eb" stroke-width="12" stroke-linecap="round"/>
    <line x1="850" y1="260" x2="880" y2="290" stroke="#2563eb" stroke-width="12" stroke-linecap="round"/>
    <line x1="930" y1="260" x2="960" y2="290" stroke="#2563eb" stroke-width="12" stroke-linecap="round"/>
    <line x1="1010" y1="260" x2="1040" y2="290" stroke="#2563eb" stroke-width="12" stroke-linecap="round"/>
    <line x1="1090" y1="260" x2="1120" y2="290" stroke="#2563eb" stroke-width="12" stroke-linecap="round"/>
    
    <!-- Blue short diagonal lines - Row 5 -->
    <line x1="100" y1="330" x2="130" y2="360" stroke="#2563eb" stroke-width="12" stroke-linecap="round"/>
    <line x1="180" y1="330" x2="210" y2="360" stroke="#2563eb" stroke-width="12" stroke-linecap="round"/>
    <line x1="260" y1="330" x2="290" y2="360" stroke="#2563eb" stroke-width="12" stroke-linecap="round"/>
    <line x1="340" y1="330" x2="370" y2="360" stroke="#2563eb" stroke-width="12" stroke-linecap="round"/>
    <line x1="420" y1="330" x2="450" y2="360" stroke="#2563eb" stroke-width="12" stroke-linecap="round"/>
    <line x1="500" y1="330" x2="530" y2="360" stroke="#2563eb" stroke-width="12" stroke-linecap="round"/>
    <line x1="580" y1="330" x2="610" y2="360" stroke="#2563eb" stroke-width="12" stroke-linecap="round"/>
    <line x1="660" y1="330" x2="690" y2="360" stroke="#2563eb" stroke-width="12" stroke-linecap="round"/>
    <line x1="740" y1="330" x2="770" y2="360" stroke="#2563eb" stroke-width="12" stroke-linecap="round"/>
    <line x1="820" y1="330" x2="850" y2="360" stroke="#2563eb" stroke-width="12" stroke-linecap="round"/>
    <line x1="900" y1="330" x2="930" y2="360" stroke="#2563eb" stroke-width="12" stroke-linecap="round"/>
    <line x1="980" y1="330" x2="1010" y2="360" stroke="#2563eb" stroke-width="12" stroke-linecap="round"/>
    <line x1="1060" y1="330" x2="1090" y2="360" stroke="#2563eb" stroke-width="12" stroke-linecap="round"/>
    
    <!-- Red accent lines - scattered -->
    <line x1="140" y1="80" x2="170" y2="110" stroke="#dc2626" stroke-width="14" stroke-linecap="round"/>
    <line x1="300" y1="80" x2="330" y2="110" stroke="#dc2626" stroke-width="14" stroke-linecap="round"/>
    <line x1="460" y1="80" x2="490" y2="110" stroke="#dc2626" stroke-width="14" stroke-linecap="round"/>
    <line x1="620" y1="80" x2="650" y2="110" stroke="#dc2626" stroke-width="14" stroke-linecap="round"/>
    <line x1="780" y1="80" x2="810" y2="110" stroke="#dc2626" stroke-width="14" stroke-linecap="round"/>
    <line x1="940" y1="80" x2="970" y2="110" stroke="#dc2626" stroke-width="14" stroke-linecap="round"/>
    <line x1="1100" y1="80" x2="1130" y2="110" stroke="#dc2626" stroke-width="14" stroke-linecap="round"/>
    
    <line x1="90" y1="220" x2="120" y2="250" stroke="#dc2626" stroke-width="14" stroke-linecap="round"/>
    <line x1="250" y1="220" x2="280" y2="250" stroke="#dc2626" stroke-width="14" stroke-linecap="round"/>
    <line x1="410" y1="220" x2="440" y2="250" stroke="#dc2626" stroke-width="14" stroke-linecap="round"/>
    <line x1="570" y1="220" x2="600" y2="250" stroke="#dc2626" stroke-width="14" stroke-linecap="round"/>
    <line x1="730" y1="220" x2="760" y2="250" stroke="#dc2626" stroke-width="14" stroke-linecap="round"/>
    <line x1="890" y1="220" x2="920" y2="250" stroke="#dc2626" stroke-width="14" stroke-linecap="round"/>
    <line x1="1050" y1="220" x2="1080" y2="250" stroke="#dc2626" stroke-width="14" stroke-linecap="round"/>
    
    <!-- Pink/Magenta accent lines - scattered -->
    <line x1="110" y1="150" x2="140" y2="180" stroke="#ec4899" stroke-width="10" stroke-linecap="round"/>
    <line x1="270" y1="150" x2="300" y2="180" stroke="#ec4899" stroke-width="10" stroke-linecap="round"/>
    <line x1="430" y1="150" x2="460" y2="180" stroke="#ec4899" stroke-width="10" stroke-linecap="round"/>
    <line x1="590" y1="150" x2="620" y2="180" stroke="#ec4899" stroke-width="10" stroke-linecap="round"/>
    <line x1="750" y1="150" x2="780" y2="180" stroke="#ec4899" stroke-width="10" stroke-linecap="round"/>
    <line x1="910" y1="150" x2="940" y2="180" stroke="#ec4899" stroke-width="10" stroke-linecap="round"/>
    <line x1="1070" y1="150" x2="1100" y2="180" stroke="#ec4899" stroke-width="10" stroke-linecap="round"/>
    
    <line x1="60" y1="290" x2="90" y2="320" stroke="#ec4899" stroke-width="10" stroke-linecap="round"/>
    <line x1="220" y1="290" x2="250" y2="320" stroke="#ec4899" stroke-width="10" stroke-linecap="round"/>
    <line x1="380" y1="290" x2="410" y2="320" stroke="#ec4899" stroke-width="10" stroke-linecap="round"/>
    <line x1="540" y1="290" x2="570" y2="320" stroke="#ec4899" stroke-width="10" stroke-linecap="round"/>
    <line x1="700" y1="290" x2="730" y2="320" stroke="#ec4899" stroke-width="10" stroke-linecap="round"/>
    <line x1="860" y1="290" x2="890" y2="320" stroke="#ec4899" stroke-width="10" stroke-linecap="round"/>
    <line x1="1020" y1="290" x2="1050" y2="320" stroke="#ec4899" stroke-width="10" stroke-linecap="round"/>
    
    <!-- Cyan short lines - scattered -->
    <line x1="150" y1="100" x2="175" y2="125" stroke="#06b6d4" stroke-width="8" stroke-linecap="round"/>
    <line x1="310" y1="100" x2="335" y2="125" stroke="#06b6d4" stroke-width="8" stroke-linecap="round"/>
    <line x1="470" y1="100" x2="495" y2="125" stroke="#06b6d4" stroke-width="8" stroke-linecap="round"/>
    <line x1="630" y1="100" x2="655" y2="125" stroke="#06b6d4" stroke-width="8" stroke-linecap="round"/>
    <line x1="790" y1="100" x2="815" y2="125" stroke="#06b6d4" stroke-width="8" stroke-linecap="round"/>
    <line x1="950" y1="100" x2="975" y2="125" stroke="#06b6d4" stroke-width="8" stroke-linecap="round"/>
    
    <!-- Small circles for accent -->
    <circle cx="180" cy="60" r="4" fill="#dc2626" opacity="0.7"/>
    <circle cx="420" cy="60" r="4" fill="#dc2626" opacity="0.7"/>
    <circle cx="660" cy="60" r="4" fill="#dc2626" opacity="0.7"/>
    <circle cx="900" cy="60" r="4" fill="#dc2626" opacity="0.7"/>
    
    <circle cx="150" cy="200" r="3" fill="#ec4899" opacity="0.7"/>
    <circle cx="390" cy="200" r="3" fill="#ec4899" opacity="0.7"/>
    <circle cx="630" cy="200" r="3" fill="#ec4899" opacity="0.7"/>
    <circle cx="870" cy="200" r="3" fill="#ec4899" opacity="0.7"/>
    <circle cx="1110" cy="200" r="3" fill="#ec4899" opacity="0.7"/>
    
    <circle cx="120" cy="340" r="3" fill="#06b6d4" opacity="0.7"/>
    <circle cx="360" cy="340" r="3" fill="#06b6d4" opacity="0.7"/>
    <circle cx="600" cy="340" r="3" fill="#06b6d4" opacity="0.7"/>
    <circle cx="840" cy="340" r="3" fill="#06b6d4" opacity="0.7"/>
    <circle cx="1080" cy="340" r="3" fill="#06b6d4" opacity="0.7"/>
    
  </g>
</svg>
